<?xml version="1.0" standalone="no"?>
<!DOCTYPE svg PUBLIC "-//W3C//DTD SVG 1.1//EN" "http://www.w3.org/Graphics/SVG/1.1/DTD/svg11.dtd" >
<!--
2013-9-30: Created.
-->
<svg>
<metadata>
Created by iconfont
</metadata>
<defs>

<font id="iconfont" horiz-adv-x="1024" >
  <font-face
    font-family="iconfont"
    font-weight="500"
    font-stretch="normal"
    units-per-em="1024"
    ascent="896"
    descent="-128"
  />
    <missing-glyph />
    
    <glyph glyph-name="bao" unicode="&#58977;" d="M490.228293 638.874926h211.149068v-89.76268H490.228293zM512 881.526072l-431.785248-117.737499V292.71695c0-276.342558 431.785248-407.580948 431.785248-407.580948s431.785248 127.71113 431.785248 407.580948V763.788573L512 881.526072zM335.150493 93.122699H251.955814V386.858297c-14.717187-25.298967-30.164153-49.503266-46.219266-72.6129-4.865186 42.692006-12.041335 84.532605-21.771707 125.400167 46.219266 79.667419 84.532605 181.471434 114.818387 305.533673l88.424754-26.393633c-15.446965-55.706378-32.840005-108.250386-52.179119-157.753652v-467.909253h0.12163z m453.435325 37.583561c-63.977194 40.259413-113.480461 90.735717-148.509799 151.42891v-189.134101h-93.776458v184.877064c-43.786673-61.787861-95.479273-113.480461-155.077801-155.0778-14.109039 25.907115-30.772301 52.422378-50.111414 79.1809 59.598527 34.299561 111.899275 78.937641 156.780615 134.035871H359.598052v75.288752h186.823138v59.355268H402.411688V717.447678h386.782278v-246.786554H640.076019v-59.355268h192.661361v-75.288752H681.308469c35.029338-47.313933 88.059865-87.086827 159.334838-119.440313-22.014966-35.272598-39.286376-63.855565-52.057489-85.870531z"  horiz-adv-x="1024" />

    
    <glyph glyph-name="te" unicode="&#58887;" d="M641.706667 896h-256C174.08 896 0 721.92 0 513.706667v-256C0 46.08 174.08-128 382.293333-128h256C849.92-128 1024 46.08 1024 254.293333v256C1024 721.92 849.92 896 641.706667 896z m-238.933334-617.813333l-54.613333-10.24v-300.373334H238.933333V247.466667c-47.786667-10.24-92.16-20.48-136.533333-30.72l-17.066667 122.88 153.6 27.306666v170.666667H180.906667c-6.826667-44.373333-13.653333-85.333333-20.48-126.293333-23.893333 13.653333-47.786667 27.306667-75.093334 40.96 17.066667 95.573333 30.72 194.56 37.546667 307.2l81.92-10.24c-3.413333-34.133333-3.413333-68.266667-6.826667-98.986667H238.933333V827.733333h105.813334v-177.493333h51.2v-112.64h-51.2V384l58.026666 10.24c-3.413333-30.72-3.413333-68.266667 0-116.053333z m546.133334-13.653334h-88.746667v-129.706666c0-44.373333-10.24-78.506667-27.306667-105.813334s-40.96-40.96-68.266666-47.786666c-27.306667-6.826667-85.333333-10.24-174.08-10.24-10.24 51.2-17.066667 88.746667-23.893334 116.053333 40.96-3.413333 78.506667-6.826667 109.226667-6.826667 40.96 0 64.853333 23.893333 64.853333 75.093334v109.226666h-204.8c34.133333-34.133333 64.853333-71.68 98.986667-109.226666l-88.746667-68.266667c-34.133333 47.786667-71.68 92.16-109.226666 136.533333l61.44 44.373334h-71.68v105.813333h317.44v54.613333h119.466666v-54.613333h88.746667v-109.226667z m10.24 180.906667H406.186667v105.813333h211.626666V622.933333H443.733333V728.746667h174.08V827.733333h119.466667v-98.986666h180.906667V622.933333h-180.906667v-71.68h221.866667v-105.813333z"  horiz-adv-x="1024" />

    
    <glyph glyph-name="xing1" unicode="&#58880;" d="M512 862.264889l165.717333-300.600889 337.180444-64.796444-234.723556-250.538667 42.666667-340.593778L512 51.48444400000005l-310.784-145.806222 42.609778 340.593778L9.102222 496.867556l337.123556 64.796444L512 862.264889"  horiz-adv-x="1024" />

    
    <glyph glyph-name="gouwuche" unicode="&#58881;" d="M347.136 112.63999999999999q19.456 0 36.864-7.168t30.72-19.968 20.48-30.208 7.168-36.864-7.168-36.864-20.48-30.208-30.72-20.48-36.864-7.68q-20.48 0-37.376 7.68t-30.208 20.48-20.48 30.208-7.168 36.864 7.168 36.864 20.48 30.208 30.208 19.968 37.376 7.168zM773.12 110.59199999999998q19.456 0 37.376-7.168t30.72-19.968 20.48-30.208 7.68-36.864-7.68-36.864-20.48-30.208-30.72-20.48-37.376-7.68-36.864 7.68-30.208 20.48-20.48 30.208-7.68 36.864 7.68 36.864 20.48 30.208 30.208 19.968 36.864 7.168zM945.152 692.2239999999999q28.672 0 44.544-7.68t22.528-18.944 6.144-24.064-3.584-22.016-12.8-37.888-22.016-62.976-24.064-68.096-17.92-53.248q-13.312-40.96-33.792-56.832t-50.176-15.872l-34.816 0-66.56 0-87.04 0-95.232 0-253.952 0 15.36-92.16 516.096 0q49.152 0 49.152-41.984 0-20.48-9.728-35.328t-38.4-14.848l-49.152 0-95.232 0-117.76 0-119.808 0-98.304 0-56.32 0q-20.48 0-34.304 9.216t-23.04 24.064-14.848 32.256-8.704 32.768q-1.024 6.144-5.632 29.696t-11.264 58.88-14.848 78.848-16.384 87.552q-19.456 103.424-44.032 230.4l-76.8 0q-15.36 0-25.6 7.68t-16.896 18.432-9.216 23.04-2.56 22.528q0 20.48 13.824 33.792t37.376 13.312l22.528 0 20.48 0 25.6 0 34.816 0q20.48 0 32.768-6.144t19.456-15.36 10.24-19.456 5.12-17.408q2.048-8.192 4.096-23.04t4.096-30.208q3.072-18.432 6.144-38.912l700.416 0z"  horiz-adv-x="1024" />

    
    <glyph glyph-name="jian" unicode="&#58888;" d="M0 896v-1024h1024V896H0z m770.66752-118.89664a2106.40384 2106.40384 0 0 0 75.99616-80l-45.59872-35.99872c-21.86752 27.72992-45.59872 55.7312-71.19872 83.99872l40.80128 32zM164.26496 715.50464c37.32992-43.20256 74.65984-89.33888 111.99488-138.39872l-55.19872-39.99744C177.32608 600.0384 141.85984 648.0384 114.65728 681.10848l49.60768 34.39616z m-64-613.60128c33.06496 89.0624 66.92864 199.7312 101.59616 332.00128a904.9088 904.9088 0 0 1 59.20256-25.6c-24.00256-85.86752-56.00256-195.2-96-328.00256l-64.79872 21.60128z m376.00256 13.59872H423.46496V400.30208h180.80256v-235.20256h-128v-49.59744zM409.0624 473.10336v51.2h197.60128v-51.2H409.0624z m461.60384-411.20256c-11.74016-42.13248-30.93504-62.92992-57.6-62.39744-22.9376-0.53248-44.53376 12.53888-64.79872 39.19872-19.99872 29.87008-36.93568 63.72864-50.80064 101.60128-38.4-53.60128-80.39936-100.5312-126.0032-140.8a396.48256 396.48256 0 0 1-52.00384 38.4c59.46368 48.5376 111.60576 106.65984 156.40064 174.40256-21.0688 84.26496-33.06496 212.00384-35.99872 383.20128H373.86752v-204.00128c0-163.2-37.87264-294.93248-113.60256-395.20768-19.73248 20.80256-35.99872 35.47136-48.79872 44.00128 70.93248 89.6 106.40384 207.72864 106.40384 354.40128V649.9072h320.79872c-0.5376 42.9312-0.79872 84.80256-0.79872 125.59872h58.39872c0-40.54016 0.13312-82.40128 0.39936-125.59872h193.19808v-54.40512h-192.79872c1.05984-128.79872 8.66304-231.99744 22.79936-309.60128 36.80256 68.5312 67.33312 145.3312 91.60192 230.4l57.6-19.99872c-35.99872-111.20128-79.3344-208.67072-129.9968-292.4032 13.59872-48 29.19936-84.66944 46.80192-109.99808 17.05984-20.80256 28.8-16.53248 35.19488 12.8 5.86752 31.4624 10.9312 69.8624 15.20128 115.2 25.0624-9.07264 44.8-15.73888 59.19744-19.99872-7.47008-56.53504-15.73888-103.20384-24.80128-140.00128z m-394.39872 152.80128h75.19744v136.00256H476.26752v-136.00256z"  horiz-adv-x="1024" />

    
    <glyph glyph-name="gonggao" unicode="&#58925;" d="M1157.01 432.159H924.792c-26.346 0-47.685-21.453-47.685-47.874v-14.943c0-26.459 21.34-47.874 47.685-47.874h232.218c26.346 0 47.685 21.415 47.685 47.874v14.943c0 26.42-21.34 47.874-47.685 47.874zM618.204 843.038C545.98 785.604 394.83 705.1 286.061 627.718l-0.151-0.075c-1.243-0.753-2.484-5.044-3.726-5.758-12.872-7.226-18.63-27.212-88.484-27.212H57.417c-34.964 0-56.68-16.37-56.68-53.293v-328.19c0-36.921 19.908-55.138 56.68-55.138h136.846c69.515-0.113 75.16-19.947 87.957-27.174 1.243-0.714 2.446-5.006 3.726-5.758l0.151-0.075c105.345-77.38 257.51-164.172 332.143-219.234 22.469-16.597 97.215-45.767 97.215 56.794V790.611c0 102.597-75.348 69.815-97.253 52.428l0.002-0.001z m214.454-226.272c12.345-21.753 36.771-27.211 54.611-12.194l190.893 160.897c17.839 15.016 22.281 44.825 9.973 66.616l-7 12.307c-12.308 21.753-36.771 27.212-54.574 12.194L835.668 695.727c-17.84-15.054-22.319-44.862-9.974-66.616l6.963-12.345h0.001z m54.573-468.538c-17.839 15.016-42.266 9.56-54.61-12.157l-6.964-12.307c-12.345-21.753-7.828-51.562 9.974-66.617l190.893-160.858c17.839-15.017 42.265-9.56 54.573 12.157l7.001 12.307c12.307 21.753 7.829 51.562-9.973 66.616L887.232 148.228z"  horiz-adv-x="1205" />

    
    <glyph glyph-name="left-jf" unicode="&#59027;" d="M687.8-40l-0.2 0.2-389.4 389.6c-8.7 8.7-13.5 20.2-13.5 32.5s4.8 23.8 13.5 32.5L691.9 808.5c10.9 10.4 28.4 10.2 39.1-0.5 10.9-10.9 10.9-28.7 0-39.7-0.5-0.5-0.9-0.9-1.4-1.3L344.8 382.20000000000005 726.1 1c0.5-0.4 0.9-0.8 1.4-1.3 10.9-10.9 10.9-28.7 0-39.7-10.9-10.9-28.8-10.9-39.7 0z"  horiz-adv-x="1024" />

    
    <glyph glyph-name="youhui" unicode="&#58983;" d="M511.99463563 863.98927031C100.46982313 865.00573031 32.81881437 795.12415781 32.14117531 383.99463562999995s68.49805781-479.99463563 479.99463469-479.99463563 478.04642156 70.58744625 479.99463563 479.99463563-68.32864781 479.06288062-479.99463563 479.99463468zM215.27324563 607.47449063h270.34991999v-29.8161375H272.87260156v-202.61420625h212.75056407v-32.52669469l-256.11949032-3.38819813 8.13167344-56.24407687q344.21262375 9.4869525 501.42498375 20.329185 16.94098688-18.29626594 35.23725375-40.65837l47.43476344 32.52669562a758.61740344 758.61740344 0 0 1-83.34965625 79.96145907h23.71738219v202.61420625h-212.77879875V607.47449063H819.75590188v54.21115875h-270.434625V703.04989312h-63.69811126v-41.33600906H215.27324563v-54.21115875z m334.04803125-263.60175938v31.05847594h138.35139468l-13.55278969-8.80931344 18.97390594-17.61862688z m-1e-8 78.60618v33.20433469H701.16899188v-33.20433469h-151.847715z m-215.46112125 0v33.20433469h151.79124469v-33.20433469h-151.79124469z m0 107.74467844h151.79124469V496.93455h-151.79124469v33.20433469z m367.25236594 0V496.93455h-151.79124469v33.20433469H701.16899188zM272.1949625 262.58422781a397.09673813 397.09673813 0 0 0-63.02047219-128.7515025l52.85587969-33.88197375a510.2907675 510.2907675 0 0 1 67.76394844 151.11360469z m342.17970469-175.50862687a82.4743725 82.4743725 0 0 1 53.64645937 14.11748906q18.97390594 15.58570781 25.75030032 92.15897063l-58.276995 18.973905a123.38685656 123.38685656 0 0 0-11.51987157-57.59935594 24.81854625 24.81854625 0 0 0-21.00682406-8.80931344h-149.64538594a19.36919531 19.36919531 0 0 0-23.71738218 19.76448469v99.613005h-62.54047782v-113.16579469a58.41817031 58.41817031 0 0 1 67.08630938-64.94045062h180.25210312z m-137.560815 165.34403437a652.48211906 652.48211906 0 0 0 77.25090094-83.34965625l47.99946375 33.20433469a750.65514 750.65514 0 0 1-77.25090094 79.96145906z m202.61420625-4.74347625a1068.72217312 1068.72217312 0 0 0 99.61300406-134.85025781l50.82296156 33.88197469a1024.22384719 1024.22384719 0 0 1-101.64592312 131.46205969z"  horiz-adv-x="1024" />

    
    <glyph glyph-name="bad1" unicode="&#58882;" d="M207.25270258 255.76494347000005c28.95815602-7.64495359 97.06774001-7.41328823 196.68379763-10.19327121a336.37794469 336.37794469 0 0 1-5.79163136-76.21786758C397.91320348 86.41764501 458.60949925 13.211425780000013 512.1241729 13.211425780000013a69.49957548 69.49957548 0 0 1 69.49957474 69.49957548c0 46.33305007 14.82657571 127.18422289 92.66610088 168.18897234l24.3248508 12.04659271L697.45637319 262.94656631A73.4378846 73.4378846 0 0 1 743.78942327 244.87667686999998L813.28899874 244.87667686999998a69.49957548 69.49957548 0 0 1 69.49957548 69.49957549l0 370.66440133a69.49957548 69.49957548 0 0 1-69.49957548 69.49957546l-69.49957545 0a69.49957548 69.49957548 0 0 1-61.85462191-40.0780887l-5.55996598 1.38999149L674.28984852 715.8521319399999c-13.43658422 3.24331373-38.91976186 9.49827509-93.82442701 23.1665254A689.20412196 689.20412196 0 0 1 442.62459742 754.54022915l-126.72089214 0a87.33779954 87.33779954 0 0 1-82.93616041-44.7113932A164.25066323 164.25066323 0 0 1 222.54260901 685.04065369a77.14452833 77.14452833 0 0 1 1e-8-40.77308411 103.78603211 103.78603211 0 0 1-37.99310111-59.76963499 90.81277865 90.81277865 0 0 1 0-63.24461338 109.11433344 109.11433344 0 0 1-31.04314363-64.17127416 87.10613418 87.10613418 0 0 1 9.03494436-54.90466514 80.61950745 80.61950745 0 0 1-21.08153779-50.27135918l0-4.86496988 0-11.58326269a85.71614267 85.71614267 0 0 1 65.79293173-79.69284669zM720.62289859 685.04065369a23.1665254 23.1665254 0 0 0 23.16652468 23.16652539L813.28899874 708.2071790800001a23.1665254 23.1665254 0 0 0 23.1665254-23.16652539L836.45552414 314.37625234999996a23.1665254 23.1665254 0 0 0-23.1665254-23.1665254l-69.49957545 0a23.1665254 23.1665254 0 0 0-23.1665247 23.1665254z m-532.83007767-334.98795321C187.79282092 360.70930242 193.58445226 383.87582710000004 234.12587099 383.87582710000004l46.33305079 0a11.5832627 11.5832627 0 0 1 1e-8 23.16652541l-44.94305932 0a35.21311811 35.21311811 0 0 0-37.0664396 42.62640631A50.50302457 50.50302457 0 0 0 248.48911668 499.70845266L303.62544646 499.70845266a11.5832627 11.5832627 0 0 1 1e-8 23.1665254l-46.33305008 0c-39.15142723 0-35.67644886 29.8848175-30.11648288 47.4913762 7.41328822 23.1665254 11.81492809 44.94305857 61.15962651 44.9430593L326.79197189 615.3094135599999a11.5832627 11.5832627 0 0 1-2e-8 23.16652467l-36.37144424 1e-8a24.5565169 24.5565169 0 0 0-23.16652541 32.66480048 123.24591377 123.24591377 0 0 0 6.48662675 16.67989795 41.69974485 41.69974485 0 0 0 42.1630763 20.15487704L442.62459742 707.97551371a652.36934697 652.36934697 0 0 0 128.34254901-14.82657642c96.14107925-23.1665254 101.23771449-23.1665254 107.2610112-25.71484229 0 0 19.6915463-3.24331373 19.69154631-20.38654243l0-319.69804674a25.01984692 25.01984692 0 0 0-18.30155482-23.16652468l-5.3283006-2.54831762c-105.87101971-43.78473247-138.99915095-138.99915095-138.99915095-218.92366228a23.1665254 23.1665254 0 0 0-23.16652467-23.16652539c-24.5565169 0-67.87791861 49.11303307-67.87791861 110.0409942A277.99830117 277.99830117 0 0 0 465.79112209 291.20972695c-231.6652511 0-230.04359423 3.24331373-250.43013592 8.80327972A35.44478347 35.44478347 0 0 0 187.79282092 335.45779015000005l0 14.59491033zM778.53921136 615.54107821A34.74978738 34.74978738 0 1 1 743.78942327 650.29086631 34.74978738 34.74978738 0 0 1 778.53921136 615.54107821z m1e-8 46.3330508a11.5832627 11.5832627 0 1 0-11.5832627-11.5832627 11.5832627 11.5832627 0 0 0 11.5832627 11.5832627z"  horiz-adv-x="1024" />

    
    <glyph glyph-name="zhe" unicode="&#59571;" d="M680.3456 448.1024h-37.4784a301.8752 301.8752 0 0 0 25.8048-71.2704zM819.2 896H204.8A204.8 204.8 0 0 1 0 691.2v-614.4a204.8 204.8 0 0 1 204.8-204.8h614.4a204.8 204.8 0 0 1 204.8 204.8V691.2A204.8 204.8 0 0 1 819.2 896zM215.04 814.08A71.68 71.68 0 1 0 143.36 742.4 71.68 71.68 0 0 0 215.04 814.08z m495.616-729.9072h-90.112l12.288 74.5472a296.7552 296.7552 0 1 0-352.256 433.5616l2.8672 16.9984h66.7648l14.1312 81.92h90.112l-14.1312-81.92h61.44l-4.3008-24.9856c8.6016-3.8912 16.9984-7.9872 25.1904-12.4928l16.1792 92.7744h107.9296a30.1056 30.1056 0 0 0 36.4544 0h66.9696a409.6 409.6 0 0 1 129.6384 20.48l-11.6736-67.584a341.1968 341.1968 0 0 0-113.8688-17.6128h-133.3248l-16.5888-95.232c3.4816-4.096 6.7584-8.192 9.8304-12.4928h251.4944l-11.264-44.6464h-83.968zM829.44-46.08a51.2 51.2 0 1 0 51.2 51.2 51.2 51.2 0 0 0-51.2-51.2zM614.4 492.7488c-3.072 4.3008-6.3488 8.3968-9.8304 12.4928l-2.048-12.4928zM642.8672 448.1024h-52.0192l-22.9376-152.7808Q538.2144 107.7248 397.1072 76.8l14.7456 83.968c32.1536 26.624 53.0432 70.4512 62.8736 131.8912l48.5376 279.3472c-8.192 4.5056-16.5888 8.6016-25.1904 12.4928L491.52 544.9728h-61.44l-20.48-122.88c20.48 4.096 40.96 8.8064 61.44 14.1312l-12.0832-69.632c-20.48-6.144-40.96-12.0832-63.0784-17.6128l-30.9248-177.3568A69.632 69.632 0 0 0 368.64 148.48a70.656 70.656 0 0 0-16.1792-44.8512l-3.2768-20.48H327.68a69.4272 69.4272 0 0 0-61.44 0h-61.44l11.4688 44.8512h11.8784a67.7888 67.7888 0 0 0-3.072 20.48 71.68 71.68 0 0 0 59.1872 70.4512l17.2032 110.1824c-24.7808-4.5056-49.9712-8.6016-75.3664-12.288l13.5168 77.824 20.48 2.8672c23.552 2.6624 40.96 5.12 53.8624 7.3728l24.3712 140.0832H272.384l8.192 47.3088A296.7552 296.7552 0 1 1 632.832 158.72l35.84 217.9072a301.8752 301.8752 0 0 1-25.8048 71.4752zM865.6896 492.7488H602.3168l2.048 12.4928 16.5888 95.232h133.9392a341.1968 341.1968 0 0 1 113.8688 17.6128l11.6736 67.584a409.6 409.6 0 0 0-129.6384-20.48h-66.9696a30.72 30.72 0 1 0-36.4544 0h-107.9296l-16.1792-92.7744-48.5376-279.9616c-9.8304-61.44-30.72-105.2672-62.8736-131.8912L397.1072 76.8q140.9024 30.9248 170.8032 218.5216l22.9376 152.7808h89.4976l-11.6736-71.2704L632.832 158.72l-12.288-74.752h90.112l59.8016 363.9296h83.968zM338.944 544.9728L314.7776 404.48c-12.288-2.2528-30.3104-4.7104-53.8624-7.3728l-20.48-2.8672-13.5168-77.824c25.3952 3.6864 50.5856 7.7824 75.3664 12.288l-17.2032-110.1824a83.3536 83.3536 0 0 0 11.8784 1.6384 71.4752 71.4752 0 0 0 67.3792-48.128l30.9248 177.3568c22.3232 5.5296 43.2128 11.4688 63.0784 17.6128l12.0832 69.632c-20.48-5.3248-42.1888-10.0352-61.44-14.1312l20.48 122.88h61.44l6.7584 39.3216 4.7104 24.576h-61.44l14.1312 81.92h-90.112l-14.1312-81.92h-67.3792l-2.8672-16.9984-8.192-47.3088zM228.352 129.024h-11.8784L204.8 84.1728h61.44a70.8608 70.8608 0 0 0-37.888 44.8512zM327.68 84.1728h20.48l3.2768 20.48a70.8608 70.8608 0 0 0-23.7568-20.48zM215.04 742.4m-71.68 0a71.68 71.68 0 1 1 143.36 0 71.68 71.68 0 1 1-143.36 0ZM829.44 5.12m-51.2 0a51.2 51.2 0 1 1 102.4 0 51.2 51.2 0 1 1-102.4 0ZM634.88 640a30.72 30.72 0 1 1 48.9472 24.576 30.1056 30.1056 0 0 1-36.4544 0 30.5152 30.5152 0 0 1-12.4928-24.576zM296.96 220.16a83.3536 83.3536 0 0 1-12.4928-1.2288A71.68 71.68 0 0 1 225.28 148.48a67.7888 67.7888 0 0 1 3.072-20.48A70.8608 70.8608 0 0 1 266.24 84.1728a69.4272 69.4272 0 0 1 61.44 0 72.704 72.704 0 0 1 40.96 64.3072 69.632 69.632 0 0 1-4.3008 23.552A71.4752 71.4752 0 0 1 296.96 220.16z"  horiz-adv-x="1024" />

    
    <glyph glyph-name="youdanjiantou" unicode="&#58908;" d="M378.88 720.782222L682.666667 386.844444l-303.786667-333.368888a21.048889 21.048889 0 1 0-31.288889 27.875555L625.777778 386.844444 349.297778 691.768889a21.048889 21.048889 0 0 0 30.72 27.875555z"  horiz-adv-x="1024" />

    
    <glyph glyph-name="jian1" unicode="&#58898;" d="M511.99488 893.36832C231.13728 893.36832 2.62144 664.8576 2.62144 384c0-280.87808 228.51584-509.36832 509.37344-509.36832 280.86784 0 509.38368 228.49024 509.38368 509.36832C1021.36832 664.8576 792.86272 893.36832 511.99488 893.36832z m0-944.59904c-239.98464 0-435.22048 195.24608-435.22048 435.23072s195.23584 435.22048 435.22048 435.22048c239.99488 0 435.23072-195.23584 435.23072-435.22048 0-239.98464-195.23584-435.23072-435.23072-435.23072z m191.02208 467.05664M742.38464 420.6592H281.55904c-20.16256 0-36.608-16.384-36.608-36.60288 0-20.2752 16.44544-36.71552 36.608-36.71552h460.8256a36.63872 36.63872 0 0 1 36.66432 36.71552c0 20.21888-16.44544 36.60288-36.66432 36.60288zM742.38464 420.6592H281.55904c-20.16256 0-36.608-16.384-36.608-36.59776 0-20.28032 16.44544-36.72064 36.608-36.72064h460.8256a36.63872 36.63872 0 0 1 36.66432 36.72064c0 20.21376-16.44544 36.59776-36.66432 36.59776z"  horiz-adv-x="1024" />

    
    <glyph glyph-name="piao" unicode="&#59018;" d="M1024.10784-69.728c0-21.152-20.896-26.432-42.688-26.432h-91.456a33.824 33.824 0 0 0-36.288 35.2 36.352 36.352 0 0 1-72.672 0 33.792 33.792 0 0 0-36.32-35.2H672.10784a33.792 33.792 0 0 0-36.288 35.2 36.32 36.32 0 0 1-72.608 0 33.792 33.792 0 0 0-36.352-35.2h-72.576a33.792 33.792 0 0 0-36.288 35.2 36.32 36.32 0 0 1-72.64 0 33.792 33.792 0 0 0-36.288-35.2h-72.64a33.792 33.792 0 0 0-36.288 35.2 36.32 36.32 0 0 1-72.64 0 33.792 33.792 0 0 0-36.288-35.2H28.90784c-21.76 0-28.8 5.28-28.8 26.432V770.624A89.024 89.024 0 0 0 96.10784 864h800a143.392 143.392 0 0 0 94.88-31.104H992.10784v-1.312a93.952 93.952 0 0 0 32-60.8v-840.352z m-212.672 151.904l36.608 35.552a1192.672 1192.672 0 0 1-172.128 104.512l-35.2-32a996.672 996.672 0 0 0 170.688-108.064z m-383.808-5.696h64.448q68.832 0 68.832 61.856V246.4h279.776v44.8H213.73984v-44.8h295.904v-96.672a28.8 28.8 0 0 0-34.432-30.592q-16.864 0-57.856 2.848z m344.96 266.624v42.656H286.98784v-42.656H772.58784zM243.78784 82.88a716 716 0 0 1 183.84 107.36l-34.432 30.56a786.144 786.144 0 0 0-180.928-98.08z m608.64 614.976H202.02784v-44.8h221.184v-59.008H259.30784v-153.6h536v153.6h-162.592V653.056h219.744v44.8zM473.70784 551.392h108.416V483.2H473.70784v68.256z m0 101.664h108.416v-59.008H473.70784V653.056z m-163.2-101.664h112.8V483.2H310.50784v68.256z m433.6-68.256h-111.392v68.256h111.328V483.2z"  horiz-adv-x="1024" />

    
    <glyph glyph-name="zhengque" unicode="&#58897;" d="M512 896C229.2 896 0 666.8 0 384s229.2-512 512-512 512 229.2 512 512S794.8 896 512 896z m-35.3-802.5C388.2 205.7 284 291.2 211.2 317.9L383 424.7l83.3-165.6s135.4 336.6 348.9 448.8c-5.2-80.1-26-149.6 10.4-235.1-93.8-21.4-286.4-261.8-348.9-379.3z"  horiz-adv-x="1024" />

    
    <glyph glyph-name="zan1" unicode="&#58883;" d="M848.16 483.52c-8.8 5.92-19.2 8.96-30.08 8.96l-85.92-0.32c14.72 27.2 36.32 74.24 46.4 131.36 9.44 53.12-13.76 80.48-28.32 92-20 15.84-45.28 20-56.96 14.88-5.92-2.56-9.76-7.52-10.88-13.28-13.6-64.32-96.8-143.36-145.28-184.8-35.68-30.4-112.48-58.88-143.68-69.6a46.128 46.128 0 0 1-42.24 27.84h-113.28c-25.28 0-45.92-20.64-45.92-45.92v-329.76c0-25.28 20.64-45.92 45.92-45.92h113.28c21.76 0 39.84 15.2 44.64 35.36 28.64-1.6 66.72-6.08 79.36-14.56 61.6-44 129.12-49.76 154.72-51.84l8.16-0.8c7.36-0.8 16.64-1.76 27.52-1.76a144 144 0 0 1 50.08 8.64c32.32 11.84 48.96 24.48 55.2 62.72 19.04 7.2 34.24 21.44 43.52 41.12 9.44 20.48 11.52 44.32 6.08 65.12 10.56 5.76 19.52 14.56 26.24 25.92 16.32 27.68 16.64 65.6 10.08 89.12-1.76 6.08-4.16 11.2-6.88 15.36 12.48 11.52 24.96 32.64 27.68 71.2 3.04 43.68-9.92 55.84-29.44 68.96zM365.28 114.88c0-7.68-6.24-14.08-13.92-14.08h-113.28c-7.68 0-13.92 6.24-13.92 14.08V444.64c0 7.68 6.24 13.92 13.92 13.92h113.28c7.68 0 13.92-6.24 13.92-13.92v-329.76z m480.48 302.08c-3.52-51.2-26.08-55.2-26.4-55.36-8.64-0.64-15.68-7.84-15.36-16.48s6.72-15.36 15.36-15.36c1.44-0.32 4.64-2.88 6.72-10.4 4.96-17.28 4.16-45.6-6.72-64.16-5.6-9.6-13.12-15.2-22.88-17.44-4.8-1.12-8.96-4.48-10.88-8.96-2.08-4.48-1.92-9.76 0.48-14.08 7.68-14.4 7.52-36.32-0.32-53.12-4.64-9.92-14.08-22.72-32.32-26.56-6.72-1.44-11.84-7.04-12.64-13.92-3.52-33.44-11.36-37.92-35.84-46.88-24.96-9.12-47.04-6.72-63.2-4.96l-9.12 0.8c-23.04 1.92-84.32 7.04-139.2 46.24-21.76 14.4-69.92 18.88-96.16 20.16V430.24c27.04 8.96 117.6 40.96 160.64 77.76 59.68 51.04 132.96 124.64 152.96 191.68 6.56-1.44 16.16-5.28 24.16-13.76 12.32-12.96 16.32-32 11.84-56.96-14.4-81.92-55.84-143.36-56.32-144-3.36-4.96-3.68-11.2-0.96-16.48 2.72-5.28 8.16-8.48 14.08-8.48l114.08 0.48c4.48 0 8.64-1.28 12.96-4 12.16-7.84 16.96-11.2 15.04-39.52z"  horiz-adv-x="1025" />

    
    <glyph glyph-name="chuyidong" unicode="&#58884;" d="M512 481.08344739L156.18756349 836.97598447a68.64728811 68.64728811 0 1 1-97.08344532-97.08344736L414.83645201 384l-355.89253912-355.81243651a68.64728811 68.64728811 0 1 1 97.08344739-97.08344532L512 286.83645201l355.81243651-355.89253912a68.64728811 68.64728811 0 1 1 97.08344532 97.08344739L609.16354799 384l355.89253912 355.81243651a68.64728811 68.64728811 0 1 1-97.08344739 97.08344532L512 481.16354799z"  horiz-adv-x="1024" />

    
    <glyph glyph-name="favor-active" unicode="&#58889;" d="M707.584 802.816c-77.312 0-148.992-38.912-196.608-102.912-47.104 64-119.296 102.912-196.608 102.912-139.264 0-252.416-123.904-252.416-275.968 0-90.624 40.448-154.624 73.216-205.824C229.888 172.03200000000004 468.48-12.799999999999955 478.72-20.480000000000018c9.728-7.68 20.992-11.264 32.256-11.264s22.528 3.584 32.256 11.264c10.24 7.68 248.32 193.024 343.552 341.504 32.768 51.2 73.216 115.2 73.216 205.824 0 152.064-113.152 275.968-252.416 275.968z"  horiz-adv-x="1024" />

    
    <glyph glyph-name="you" unicode="&#58942;" d="M0 351.744C0 87.04 215.04-128 480.256-128s480.256 215.04 480.256 480.256S745.472 832.512 480.256 832.512 0 616.96 0 351.744z m64 0C64 581.632 250.88 768 480.256 768S896 581.12 896 351.744 709.632-64.512 479.744-64.512 64 122.88 64 351.744zM394.752 137.728c-12.288 12.288-12.288 32.768 0 45.056l168.96 168.96-169.984 169.984c-12.288 12.288-12.288 32.768 0 45.056 12.288 12.288 32.768 12.288 45.056 0L631.808 373.76c5.632-6.144 8.704-13.824 8.704-21.504h1.024-1.024 0.512H640h0.512H640c0-7.68-2.56-15.36-8.704-21.504h0.512L440.32 137.728c-6.144-6.144-14.336-9.216-22.528-9.216-8.704 0-16.896 3.072-23.04 9.216z"  horiz-adv-x="1024" />

    
    <glyph glyph-name="shoucang" unicode="&#58885;" d="M707.584 802.816c-77.312 0-148.992-38.912-196.608-102.912-47.104 64-119.296 102.912-196.608 102.912-139.264 0-252.416-123.904-252.416-275.968 0-90.624 40.448-154.624 73.216-205.824 94.72-148.992 333.312-333.824 343.552-341.504 9.728-7.68 20.992-11.264 32.256-11.264s22.528 3.584 32.256 11.264c10.24 7.68 248.32 193.024 343.552 341.504 32.768 51.2 73.216 115.2 73.216 205.824 0 152.064-113.152 275.968-252.416 275.968z m114.176-480.256c-87.552-122.88-272.896-263.168-282.112-269.824-8.704-6.656-18.944-10.24-28.672-10.24-10.24 0-19.968 3.072-28.672 10.24-9.216 6.656-190.976 148.48-282.112 274.944-29.184 46.08-75.776 103.424-75.776 184.32 0 136.192 75.776 231.936 200.192 231.936 69.12 0 144.384-66.048 186.368-123.392 42.496 57.344 117.248 123.392 186.368 123.392 124.928 0 205.824-95.744 205.824-231.936 0-80.896-51.712-143.872-81.408-189.44z"  horiz-adv-x="1024" />

    
    <glyph glyph-name="zhe1" unicode="&#59054;" d="M512 872.727273C242.036364 872.727273 23.272727 653.963636 23.272727 384s218.763636-488.727273 488.727273-488.727273 488.727273 218.763636 488.727273 488.727273S781.963636 872.727273 512 872.727273z m0-956.509091c-258.327273 0-465.454545 209.454545-465.454545 467.781818C46.545455 642.327273 253.672727 851.781818 512 851.781818s467.781818-209.454545 467.781818-467.781818c0-258.327273-209.454545-467.781818-467.781818-467.781818zM516.654545 819.2C276.945455 819.2 81.454545 623.709091 81.454545 384c0-239.709091 195.490909-435.2 435.2-435.2 239.709091 0 435.2 195.490909 435.2 435.2-2.327273 239.709091-195.490909 435.2-435.2 435.2zM325.818182 104.727273h-65.163637v62.836363h27.927273c13.963636-2.327273 18.618182 4.654545 16.290909 20.945455v132.654545c-6.981818-2.327273-20.945455-4.654545-37.236363-6.981818-11.636364-2.327273-20.945455-2.327273-25.6-4.654545v83.781818c23.272727 0 44.218182 2.327273 62.836363 4.654545v123.345455h-58.181818v67.490909h58.181818v65.163636h95.418182v-65.163636h53.527273v-67.490909h-53.527273v-107.054546c6.981818 2.327273 16.290909 4.654545 27.927273 6.981819 9.309091 2.327273 16.290909 2.327273 20.945454 4.654545v-62.836364c-4.654545-2.327273-11.636364-4.654545-20.945454-6.981818-13.963636-6.981818-23.272727-11.636364-27.927273-11.636363v-160.581819c4.654545-53.527273-20.945455-79.127273-74.472727-79.127272z m481.745454 307.2h-72.145454v-302.545455h-95.418182v302.545455h-62.836364v-123.345455c4.654545-90.763636-37.236364-153.6-128-188.509091v65.163637c20.945455 23.272727 30.254545 55.854545 27.927273 102.4V633.018182H674.909091c37.236364-2.327273 74.472727 4.654545 116.363636 20.945454v-72.145454c-34.909091-11.636364-67.490909-16.290909-102.4-16.290909h-114.036363v-86.109091h230.4v-67.490909z"  horiz-adv-x="1024" />

    
    <glyph glyph-name="add-sy" unicode="&#58886;" d="M512.277-58.412000000000035c-118.89 0-230.659 46.078-314.73 129.73S67.12 266.33399999999995 67.12 384.778s46.327 229.744 130.398 313.427 195.82 129.73 314.73 129.73 230.659-46.078 314.72-129.73S957.397 503.19 957.397 384.817 911.078 155.03999999999996 826.97 71.35799999999995s-195.8-129.77-314.692-129.77z m0 822.784c-101.972 0-197.809-39.494-269.865-111.222s-111.7-166.997-111.7-268.373 39.653-196.695 111.67-268.335S410.246 5.220000000000027 512.248 5.220000000000027s197.809 39.484 269.865 111.222 111.7 166.998 111.67 268.374c-0.03 101.375-39.654 196.665-111.67 268.303S614.22 764.3720000000001 512.277 764.3720000000001z m222.585-347.8H544.073V607.36c-0.76 17.561-15.613 31.18-33.173 30.419-16.495-0.714-29.704-13.924-30.419-30.419v-190.787H289.703c-17.56-0.761-31.179-15.614-30.419-33.174 0.715-16.494 13.924-29.703 30.42-30.418H480.48v-190.788c0.761-17.56 15.614-31.179 33.174-30.419 16.494 0.715 29.703 13.925 30.418 30.42V352.98h190.788c17.56-0.762 32.413 12.857 33.173 30.418 0.762 17.561-12.858 32.414-30.419 33.174a31.683 31.683 0 0 1-2.753 0z"  horiz-adv-x="1028" />

    


  </font>
</defs>
</svg>
